<?xml version="1.0" encoding="UTF-8"?>
<svg id="Layer_1" data-name="Layer 1" xmlns="http://www.w3.org/2000/svg" viewBox="0 0 1467.5095913 1467.5095913">
  <defs>
    <style>
      .cls-1 {
        fill: #a4ce49;
      }

      .cls-2 {
        fill: #ca7406;
      }

      .cls-3 {
        fill: #eff4e5;
      }

      .cls-4 {
        fill: #639a00;
      }

      .cls-5 {
        fill: #d0e0b2;
      }

      .cls-6 {
        fill: #cc914a;
      }
    </style>
  </defs>
  <path class="cls-3" d="M1229.7205874,947.3079884c20.3363647-10.5045319,30.5045166-15.7567902,35.1272583-20.7272644,22.3580322-24.0399475-1.8768311-53.1514587,17.0181885-102.1091003,4.7509155-12.3097839,14.3152466-36.0603943,37.7454834-46.2545471,4.8436279-2.1073914,23.1663818-9.242218,39.4909058-1.5272827,25.8503418,12.2168274,28.0571899,52.8645935,28.7999878,66.5454712,4.3619995,80.341507-61.9133911,139.65979-73.5272827,149.6727295-6.2097778,5.3537445-38.388855,32.4505234-86.8363647,42.5454483-18.6791992,3.8921585-40.0023193,8.3352127-50.8363647-3.272728-13.1338501-14.0720062-6.0718994-46.6102753,10.690918-63.2727203,8.8026123-8.749939,14.185791-7.0638275,42.3272705-21.6000061Z"/>
  <path class="cls-3" d="M617.2842165,256.3261463c-30.9539948,10.6657104-56.9453583,26.6181641-56.9454498,26.6182251-8.4544983,5.1890259-36.8529968,23.244812-65.4545441,55.6363525-24.7798843,28.0634766-39.1445312,54.9196777-47.345459,70.4727173-7.6607876,14.5286865-8.3441677,18.0753784-20.5090904,41.069458-14.2197385,26.8780518-18.2366658,31.3896484-25.7485046,47.7305298-8.8667374,19.288208-15.1308022,32.9147339-17.6696758,51.2727661-5.5189304,39.9061279,10.1617537,76.1606445,11.1272726,78.3272705,8.4549456,18.9728394,19.1783948,31.1509094,16.363636,50.8363342-.9738131,6.8105164-3.2156715,12.0551453-6.5454545,18.5454712-14.1285501,27.5389709-31.5959916,45.835022-40.145453,55.4181824-23.8708229,26.757019-45.4209328,50.9126892-47.3454552,80.2908936-1.9875107,30.3397827,17.748764,54.1525879,19.1999969,55.8545532,42.9397068,50.3583221,118.848362-3.7567139,185.7818222,36.5454559,49.0548706,29.5370483,22.7529755,67.3169098,100.7242126,176.727272,31.8715668,44.7226429,66.9968262,92.770649,117.8939819,103.4181824,42.4797363,8.886631,63.7196045,13.3299484,83.7817993,6.5454521,7.8187866-2.6441078,24.2991943-9.5950203,37.3603821-2.1204567,6.8312073,3.9093246,8.2354126,9.1942062,12.8214417,14.3661957,14.0566406,15.852684,42.2095642,12.8298492,56.2909241,11.3179016,117.9811401-12.6678848,201.1635742-98.6181135,201.1636353-98.618185,49.8076172-51.464922,71.4972534-104.6712971,77.2363281-119.5636387,46.6626587-121.0853424,11.4692993-233.1324921-8.2908936-296.0442047-11.9570312-38.0684204-37.383728-119.020752-75.0545654-153.8466797-3.9747925-3.6746216-18.2963257-16.2750244-28.1373901-37.7241821-8.4139404-18.338623-5.3117676-29.5953979-10.2625732-52.166748,0-.0001221-4.565918-20.8165283-21.7692261-53.7329712-19.4715576-37.2564697-102.9365845-140.1675415-247.4671631-173.6124878-82.5960693-19.1130371-156.5046387-8.9140625-201.0545349,6.4363403Z"/>
  <path class="cls-1" d="M490.8452805,343.5574693c-18.3747589-22.4956088-12.3330061-58.3327281-11.015608-75.9450328,4.765892-63.7155151,18.6875534-75.7900391,24.2181854-79.7768555,9.7778091-7.0484009,19.9818115-8.0311279,27.5728912-8.762146,39.0584869-3.7614746,69.9779968,24.6879883,88.936203,42.1316528,23.4106598,21.5404053,35.1159821,32.3106689,35.3454437,46.4073486.6206818,38.1306763-64.5217289,89.9392886-128.7865605,88.9241519-16.6110077-.2623901-29.9849719-5.283888-36.2705549-12.9791191Z"/>
  <path class="cls-1" d="M845.8052164,236.2544102c15.3053284-13.1176758,29.1425171-20.1409302,41.2363586-26.1817627,28.7749939-14.3729858,47.8067627-23.8792114,68.0727539-18.9818726,20.678833,4.9971313,32.2996826,22.491272,42.5454102,37.9152832,7.7004395,11.5922852,24.6124268,40.3678589,29.4545898,110.6665649,4.1715088,60.5620117-.8679348,61.765876-19.9434477,69.023876-67.706422,25.7614679-126.8399469-22.0183486-142.0326074-36.5504587-27.9973446-26.7800687-61.3421889-64.8732174-55.8340407-104.5029781,3.5713196-25.6947632,20.9742804-18.081279,36.5009833-31.388652Z"/>
  <path class="cls-2" d="M1266.8731487,911.1209578c6.0401975,9.0234338,10.8691425,23.7727233,30.9573439,35.0626689,17.5665986,9.8727576,36.3089199,9.6339237,45.5459056,11.5387913l-24.2888252,33.1541458c-8.0896145-.1804933-28.1339749-2.0062562-49.2345959-19.5412844-16.5922408-13.7884762-21.1938671-25.4382621-24.5777475-32.8685024l21.5979191-27.3458192Z"/>
  <path class="cls-2" d="M1334.9936885,860.3376225c12.0375467.4520221,31.7228837-2.1681142,52.4050541-6.9545976-1.6985552,10.3121664-6.8272818,28.602188-8.525837,38.9143544-8.080774,2.7160228-36.4396476,10.4494834-60.0605619,5.4415698-14.8996648-3.1589064-30.5664143-13.6609204-34.9706088-17.8442498.7414426-11.9644806,6.7983857-35.4087113,6.7983857-35.4087113,0,0,20.300431,14.9484147,44.3535679,15.8516345Z"/>
  <circle class="cls-2" cx="893.5179235" cy="587.4233057" r="69.0545455"/>
  <path class="cls-2" d="M419.6673899,469.1107622c35.7388995,13.3124282,53.9191465,53.076386,40.6067183,88.8152854-13.3124282,35.7388995-50.1964437,53.3852803-85.9353432,40.072852"/>
  <circle cx="531.6207456" cy="489.7624538" r="39.6395435"/>
  <circle cx="767.7630144" cy="515.7047321" r="39.6395293" transform="translate(-156.4572381 480.6570239) rotate(-31.7174766)"/>
  <path d="M503.1875597,310.1774647s.2226028-3.0759277.4515457-6.696106c.0000076-.0001221.3105469-4.9105225.5636139-9.8768311.454689-8.9230347.6630707-17.6627197.9484787-24.0089111.0000076-.0001221,1.261055-26.8814087,7.5272751-42.2181396,1.6910858-4.1389771,4.1827393-6.7069702,5.3181763-7.8545532,2.1463242-2.1693115,3.6473618-2.8726807,4.8000031-3.2182007.4734344-.1419067,2.5488815-.7213135,5.5090942,0,7.7567291,1.8901367,15.7090302,10.4726562,15.7090912,10.4727173,8.6166077,9.2994995,12.9249115,13.9492798,18,20.8909302.000061.000061,9.0229034,12.3414917,12.1090851,23.7272949.4672546,1.7238159,1.1118774,4.640686,0,7.7454224-1.0536041,2.9420166-3.1887512,4.6687012-4.2545471,5.5090942-10.1595917,8.0110474-15.2393951,12.0165405-16.5272675,12.7091064-3.5461884,1.9070435-11.2550354,8.5258789-26.6727295,21.7636108-12.0035858,10.3063354-29.7653351,24.6213989-48.7090912,53.2772827-.0000534.000061-20.1995468,28.9934082-31.3090897,57.3954468-2.8964806,7.4049683-6.167202,14.661377-9,22.0909424-.3968449,1.0407715-1.1655788,3.0808716-2.454546,5.7272339-1.5175228,3.1156006-2.5730591,4.6427002-4.4181805,7.8545532-2.0118694,3.5020752-2.8665981,5.3588257-4.2545452,8.0181885-5.8286991,11.1679688-8.694726,12.7960205-13.9090919,23.2363892-1.5167773,3.0369263-2.8111849,6.1700439-5.3999999,12.4363403-2.7810304,6.7315063-4.5342137,10.9751587-6.381818,16.690918-2.6814837,8.2954712-3.9929557,14.8383179-4.7454543,18.654541-1.949193,9.8851929-2.588048,17.5534058-2.7818184,20.1272583-.1328468,1.7645874-.6999207,9.6812134-.3272734,18.8181763.8780289,21.5283813,6.568203,39.9047241,9.5181823,48.3545532,6.0649471,17.3722534,13.3507681,29.3587036,18.7363639,38.1272888.0000525.0000916,11.4359636,18.6195374,24.8727255,33.1363525,2.5193672,2.7218628,9.3612671,9.6303101,10.3090935,10.4727173.0735321.0653687.5782394.5089417,1.2000008,1.1454773.1353951.1386108.4054527.4185486.7363625.7908936.4448967.5006104.667347.7509155.8999977,1.0909119.3242035.4738159.5332108.7792664.6545486,1.2545471.0530167.2076721.1857033.7557678,0,1.4181824-.0632401.2255859-.2126045.7326355-.6818199,1.1454468-.0780945.0686951-.3652077.3109131-.8727264.4636536-.8363571.251709-1.5910378.0557861-1.9909096-.0545654-2.2854233-.6306458-3.109005-1.0908508-3.1090927-1.0909119-4.0916672-2.286438-8.1996994-3.0048523-16.3090897-8.3181763-3.8064003-2.4939575-7.2559204-5.1888428-14.590909-11.9454346-12.7492702-11.743927-19.1239052-17.6159058-23.9454546-24.4909363-4.6691475-6.6577454-6.897543-11.8511658-11.045454-21.518158-7.1916752-16.7607117-10.4622307-30.6398621-11.6181831-35.9181824-1.4944916-6.8241577-4.6054611-22.7926636-4.5-43.6091309.0357742-7.0615845.4866524-23.5568237,5.0727291-44.1817627,4.3775005-19.6868896,6.8794556-30.9389038,14.8909092-43.690918,1.5397587-2.4508667,11.7001872-18.3549194,18.6545447-29.7000122.8945512-1.4593506,2.9703156-4.8706055,5.1545454-9.654541,2.6560578-5.8173218,3.9737344-10.3848877,4.4181819-11.8636475,3.7339792-12.4238281,12.3273239-28.1036377,19.0090904-40.2954712,7.031826-12.8305664,10.5477371-19.2458496,15.8727264-26.345459,17.8363953-23.7805176,48.8727264-57.9954224,48.8727264-57.9954224Z"/>
  <path d="M877.5239931,276.5352528c1.2266675-1.3293715,3.0939636-3.1774292,5.3603821-5.3937988,3.1636353-3.09375,6.4494629-6.4067993,10.7940979-9.9321899,10.2940063-8.3529053,17.6203003-12.5963135,27.1705322-18.1673584,10.2041626-5.5687256,27.4640503-13.2418213,36.5280762-1.3108521,5.4926758,6.6628418,9.638916,17.5509644,10.463501,23.765686,1.9007568,9.9405518,2.958313,19.5762939,3.5365601,26.6129761.9348145,14.7854004,1.1325684,11.1099243.2136841,35.010437-.4280396,7.4362183-.9485474,14.5877075-1.8755493,22.3448486-.9348755,4.4751587-3.9485474,15.149353-10.0194092,16.9588013-5.6846313,2.0618286-10.6585693-2.5058594-14.0587769-6.4835815-6.0924072-6.4378052-13.0841064-12.0696411-19.4886475-18.1775513-4.703064-4.6265259-9.46698-8.390625-14.8304749-12.3935547-7.848999-5.6703491-25.0169373-19.2640381-30.3310852-21.2092896-11.9476013-4.9024048-18.4580078-15.3572998-8.417511-26.005127,1.6515503-1.8731689,3.2611002-3.7841339,4.9546204-5.6194458Z"/>
  <path d="M468.3103548,358.5580189l20.6181793-22.1795654c-.4046631-4.9007568-.7878113-11.1473999-.8999939-18.4091187-.0332184-2.1501465-.1425858-10.8563843.5727234-22.6636353.3896103-6.4310913,1.0233765-12.2783203,2.2909088-23.9727173,1.6191101-14.9381714,2.4630356-19.9072876,2.8636398-22.1727295.9347229-5.2859497,1.8885269-9.6092529,2.9454498-14.3999634,1.728157-7.8331909,2.5922394-11.7498169,4.0090942-16.7727661,3.6780777-13.0393066,4.855011-11.7457886,9.0818176-24.2999878.0000305-.0001221,1.4677048-4.3592529,5.2363663-8.9181519.7023544-.8496094,1.7610168-1.9727783,3.4363632-2.7000122,1.0001678-.4341431,1.907959-.5916748,2.5363617-.654541.0000992,0,1.493454-.2057495,3.1090927,0,8.3050385,1.0575562,14.2362671,4.0908203,14.2363586,4.0908813,12.9846802,6.6405029,15.8491821,5.2792358,38.8636322,17.6727295,6.7528839,3.6364746,12.3805847,6.6670532,19.8818207,11.4545288,11.2650604,7.1896362,18.1817169,12.8695068,32.4818268,23.4000244,4.3905487,3.2331543,5.0804443,3.6859131,6.5454559,4.9909058.5346069.4761963,1.1189423,1.0182495,2.0454559,1.6363525,2.0094452,1.3405151,3.9808044,1.9394531,5.3727264,2.2363892,6.0045471-4.4522705,12.009079-8.904541,18.0136261-13.3568115,0,0-8.642334-6.8971558-14.7272644-11.4545898-13.7454071-10.2949219-24.5971985-17.3426514-33.7090912-23.2363281-12.7505951-8.2472534-19.125885-12.3708496-28.3090973-17.1818237-5.1374359-2.6914062-11.0613251-5.3397217-22.9090881-10.6363525-15.8241272-7.0742798-22.9670868-9.7781982-32.072731-11.4545898-6.0681839-1.1171875-10.8872833-1.3876343-16.1999969,0-6.1088715,1.5955811-10.2891159,4.7091675-12.1090927,6.2182007-4.776062,3.960022-7.1647797,8.3674927-8.5090866,10.963623-10.2708282,19.835144-13.2545242,32.5635376-13.2545471,32.5636597-7.1516113,30.508667-12.0507278,51.4082642-13.9090919,82.4727173-1.2591591,21.0481567-.5241241,36.7633667,0,44.8363647.5747719,8.8530884,2.1272736,21.9273071,2.1272736,21.9273071h.3409081Z"/>
  <path d="M828.4296633,241.5852406c-4.1978455-1.7179565-10.1983643-3.9902954-17.5636292-6.1560669-13.7561951-4.0450439-24.3093262-5.3765259-39.8181763-7.262085-9.764679-1.1871948-20.8204346-2.5032959-35.7818298-2.9454346-15.0889893-.4459229-26.2952271.229187-36.5454407.8726807-19.6560059,1.2340088-29.4840088,1.8510132-37.1999969,4.2545776-7.5179801,2.341875-15.4571848,5.5504604-20.2363709,7.6499872-3.141928,1.4815287-6.2756429,3.010393-9.3807742,4.4949815-5.6317975,2.4836115-11.5956448,4.7977502-16.9646878,8.1459248-3.1078186,2.2219238-5.3799181,4.019888-7.4249925,5.3250028-.7111053.4537964-1.9431818,1.8204545-2.5568182,2.6386364-.4418087.5890783-.4855202,1.2673789-.4227303,1.77275.0431366.3471069.2341461.5998535.3681793.7772217.3906403.5169067.894989.7364502,1.1863708.8591309,1.2974396.5462646,3.1766432.2829085,3.2249983.2727156,4.2006531-.8867188,8.5909091-1.575,12.6613636-2.5159091,8.7224095-2.0162354,17.2460386-2.695222,26.0454618-4.3431713,16.6689301-3.1217651,25.0034027-4.6826782,32.9727325-5.6454468,12.8875122-1.5569458,22.7917786-1.8348389,34.1863403-2.154541,11.1773987-.3135986,19.0262451-.5338745,30,.1090698,10.3691101.6074829,17.6036682,1.6595459,32.0727234,3.7636108,8.6692505,1.2606812,15.0036011,2.3815918,22.690918,4.5818481,3.93573,1.1264648,7.1695862,2.2334595,9.4363708,3.0545654l19.0499878-17.5500488Z"/>
  <path d="M822.3410403,234.0170643c1.452301-1.4813843,4.5203247-4.4631958,20.6181641-14.8908691,4.716156-3.0549927,7.0731506-4.5842285,10.6007996-6.7227173,9.8644409-5.9798584,17.8793335-10.0859985,23.1083069-12.750061,2.7810364-1.4168701,14.4513245-7.3186646,30.2727356-13.7454224,11.4775085-4.6622314,17.5377197-6.5128174,20.4545288-7.3636475,7.8305664-2.2841797,14.6000977-4.2120972,23.7272949-4.5817871,5.7418823-.232605,11.1356812-.4510498,17.8363647,1.6363525,8.8059082,2.7432251,14.3935547,7.7631226,17.345459,10.4727173,6.1871948,5.6791992,9.2816772,11.390686,15.2181396,22.5817871,6.0288696,11.3652954,9.5785522,20.574707,11.9454956,26.7757568,1.4011841,3.6709595,4.9134521,13.0991211,8.5090942,25.9151611,1.0852051,3.8679199,4.4031372,15.9755859,7.6908569,34.690918,3.3688354,19.1768799,5.9380493,33.8018799,6.0545654,53.1818237,0,.0001221.0465088,18.3104248-3.4363403,40.9091187,0,.0001221-.9542236,6.1914062-2.8636475,14.1408691-.2717896,1.1315308-.5494995,2.1935425-.940918,3.4364014-.34021,1.0800781-.913269,2.5484009-2.0454712,5.440918-.000061.0001221-.6377563,1.6293335-1.8408813,4.4590454-.3853149.906311-.6018066,1.3987427-.9818115,2.0454712-.8549194,1.4550171-1.7203369,2.3001099-2.2908936,2.7817993-.7721558.6518555-1.2040405,1.0059814-1.8818359,1.0636597-1.0217285.0869141-1.8103027-.5647583-2.0045776-.7363892-.4789429-.4230957-.6864014-.8927612-.8999634-1.3908691-.4643555-1.0830688-.519043-2.0285034-.5318604-2.25-.0251465-.434021-.3838501-4.5425415-.3272705-5.5636597.6816406-12.3085327.0887451-24.6546631.1636353-36.9818115.0311279-5.1231689.0584717-10.7005615-.2181396-18.2182007-.1731567-4.7062378-.5007935-13.1895752-1.6363525-23.3999634-.5751343-5.1715088-1.3618774-10.8248291-4.3636475-26.7272949-3.2283325-17.1028442-4.8424683-25.6542969-6.3272705-31.5817871-3.1652832-12.6362915-7.5738525-24.0969238-16.3909302-47.0181885-.000061-.0001221-3.3956299-8.8274536-10.7999878-20.1273193-1.9564209-2.9857178-4.7351685-6.9336548-9.654541-10.1454468-1.257019-.8206787-3.8259277-2.4702759-7.3363647-3.4090576-6.180603-1.6528931-11.5645752-.1090088-15.3818359,1.0363159-16.7303467,5.0198364-25.1036072,7.53302-25.5,7.690918-6.0896301,2.4258423-20.182251,8.2704468-37.7454529,18.1091309-9.1437378,5.1221924-16.2343445,9.6499634-20.0727234,12.1090698-3.7458801,2.3999023-10.0125122,6.4276123-17.8908997,12.1090698-9.8729858,7.119873-15.316864,12.4949341-21.3818359,16.690918-1.4711304,1.0178223-3.5489502,2.6012573-7.7045288,5.7681885-.7005615.5338745-1.4154968,1.0888672-2.2636414,1.8818359-.3718567.3476562-.4824524.4729004-1.3636475,1.309082-.7018127.6659546-1.0610962,1.0062256-1.4727173,1.3636475-.3305664.2870483-.3794556.3150024-1.5545349,1.2545166-1.2210083.9762573-1.8315125,1.4643555-1.9909058,1.6091309-.8433533.7658691-.9249268.9785767-1.4727478,1.2545166-.1399231.0704956-.750824.3670044-1.6091003.4091187-.4949951.024292-1.1036377.0541382-1.7181702-.3000488-.6088867-.3509521-.8908691-.887207-1.0363464-1.1727295-.3192444-.6265869-.3779602-1.2169189-.3545532-2.4818115.025116-1.3583984.0376892-2.0375977.190918-3.0545044.2758179-1.8305054.7428284-3.2573853,1.0636292-4.1454468.9515076-2.6340942,2.0697937-4.5509644,2.9727173-6.0818481,2.7700195-4.6965332,4.1550293-7.0447388,5.154541-8.5908813,1.4888611-2.3031006,3.3797302-5.2280273,6.0272827-8.7545776,1.5372314-2.0476074,4.6228333-6.1576538,8.3318176-9.940918Z"/>
  <path d="M405.3410376,520.830724c3.8892108,1.4602051,3.5736799,1.3869629,6.4636364,2.4545288,2.8743393,1.0617676,6.6835296,2.4260254,8.5909088,3.1091309,3.8938885,1.3945923,4.162468,1.4724121,4.9909096,1.8817749,1.115797.5513916,2.0163288,1.0960083,3.6000004,1.5545654.8677959.2512817,1.7152042.4899292,2.863636.4909058.5457306.0004883,2.1048508-.0518799,3.8454552-.9196167.9201889-.4587402,2.0862598-1.0400391,2.863636-2.3530884.5785408-.9771729.661869-1.8868408.7363625-2.7000122.081953-.8945923.2321472-2.5341797-.6545448-4.2545776-.9093933-1.7644653-2.485096-2.6329346-3.6000004-3.190918-4.2916126-2.1478271-8.0538292-3.0101318-11.045454-3.8453979-2.4752903-.6911011-5.304739-1.7425537-10.9636364-3.845459-6.691203-2.4865112-6.0406234-2.5371094-9.1636362-3.5181885-5.929451-1.8627319-6.3611727-1.0778198-12.8454542-3.1091309-2.6791553-.8392944-3.4184284-1.2293091-8.1000004-2.6999512-2.4416504-.7670288-4.3698559-1.3296509-6.6272736-1.8818359-1.8290348-.4473877-2.8791523-.8590698-4.4999981-.9818115-1.6497803-.1248779-3.0099106-.2279053-4.5.4909058-1.9528618.9420166-2.8420334,2.6746826-3.1909103,3.3545532-.2868576.55896-.9398003,1.8699341-.9000015,3.6818237.0132751.6044922.0710526,2.2670288,1.1454544,3.7636108,1.0630417,1.4807129,2.5449486,1.9960938,4.6636391,2.7000122,2.2287254.7404785,2.6803284.4489136,5.8909073,1.2272339,2.2146416.5368652,2.4562607.7863159,4.6636372,1.3872681,2.8698292.781311,4.1918316.8308716,6.8727264,1.3127441,3.9505424.710022,6.8364725,1.637085,10.1454554,2.7000122,1.7691154.5682983,4.0975924,1.4425049,8.7545455,3.190918Z"/>
  <path d="M397.0228564,569.1852772c4.286499-.5617676,4.219173-.690979,7.5818179-1.0909424,4.3467041-.5170288,7.7129114-.6880493,11.3454545-.8726807,3.9135442-.1989136,7.809155-.8793945,11.7272725-.8182373.2599754.0040283,1.0739822.0213623,2.0727272-.2727051.5165997-.1520996,1.8792801-.5727539,3-1.8545532.9198227-1.052002,1.2051659-2.1448975,1.363636-2.7817993.4222374-1.6970215.1301022-3.0861206,0-3.5999756-.4136028-1.633667-1.276001-2.6633301-1.4727268-2.8909302-.3766041-.43573-1.3932133-1.4956055-3.545454-2.1818237-2.5711784-.8197632-4.498455-.3842163-7.7454548,0-3.8221169.4522095-2.3890152-.0048828-8.2909093.5454712-4.1917143.3908691-5.34588.6616821-11.181818,1.309082-2.9284472.3248901-3.8183713.2028198-5.8363633.5999756-2.6631985.5241699-2.975421.9436035-6.2181826,1.690918-2.8237305.6507568-2.8094959.3840332-6.4363632,1.1454468-3.7486897.7869873-3.6335659,1.0446167-5.5090904,1.2000122-1.3643131.1130371-2.8004532.0571899-5.6727295-.0545654-2.0903244-.0813599-1.9649734-.138855-3.2727242-.1636353-3.0102768-.0570068-4.545105-.0718384-6,.6000366-1.6847305.7780151-2.6139755,1.9889526-2.8363647,2.2908936-.1655464.2247314-.9063301,1.2585449-1.2545471,2.8363647-.3243332,1.4696045-.1368828,2.6353149,0,3.4363403.2004967,1.1732788.4901657,2.8684692,1.8545456,4.3636475.2317772.2539673,1.1437187,1.213562,2.6727295,1.7999878,2.0767059.7964478,3.9773827.4003906,5.7818184,0,2.1406021-.4749756,3.6540146-1.1923218,4.1454544-1.4181519,2.7269459-1.2529297,5.9997807-1.7080078,12.545454-2.6181641,4.8995495-.6812744,4.8150063-.3656006,11.181818-1.2000122Z"/>
  <path d="M578.8637606,552.4261829c.4670868,3.1426392.3773956,3.7678223.6136475,5.1136475.4928589,2.8076172,1.7086639,4.81073,2.1818085,5.5635986.3864594.6149292,1.9963379,3.0839233,5.1272736,5.1272583,3.2163239,2.0990601,6.2501526,2.5821533,7.9636383,2.8363647,5.4428101.807373,9.7267914-.5806885,11.8909149-1.309082,2.5153961-.8466187,6.9854584-2.4116211,10.7999878-6.654541,2.1604462-2.4030762,4.3779755-4.8696899,4.5818176-7.963623.0445862-.6766968.0354462-2.0303345.7636414-3.5999756.1449432-.312439.7798767-1.6265869,2.1818237-2.8363647.5461273-.4712524,1.8551941-1.5723877,3.9272766-1.9636841.7422333-.1401978,2.5199432-.366333,4.4727173.4364014,2.9251099,1.2024536,4.1365204,3.8476562,4.4727325,4.5817871.837265,1.828186.4651489,2.5410156,1.0909119,5.8909302.0735626.3937378.6734161,3.5476074,1.6363525,5.8909302,1.5388489,3.744812,4.1922455,5.8756104,7.2000122,8.2908936,2.0679474,1.6606445,5.3639679,4.2548218,10.4727173,5.7817993,1.8114319.5414429,5.2253418,1.5255737,9.7091064,1.0909424,1.7474976-.1693726,6.1995544-.6566162,10.6908875-3.8181763,3.3671875-2.3702393,5.1443176-5.1104126,5.5636597-5.7818604.9464722-1.5155029,1.5135803-2.9725952,1.5136108-2.9727173.6743774-1.6555786.5088196-1.8982544.981842-2.6590576,1.1901245-1.9141846,3.5176697-2.4354858,3.9681702-2.536377,2.2907104-.5130615,4.1343384.3085938,4.7045593.5726929,3.6013184,1.6677856,4.6217346,5.5878296,4.7454529,6.095459.9473267,3.8875732-1.0213318,7.2047119-2.8636475,10.309082-2.5075684,4.2252808-5.6079712,6.6715088-8.1408997,8.6318359-2.136322,1.6533813-4.9794312,3.8179321-9.2454529,5.3590698-4.216156,1.5231323-7.6976624,1.6699219-12.7227478,1.8818359-2.8701782.1210327-5.3239746.2244873-8.4272614-.1636353-6.6348572-.829834-11.3824768-3.3082275-14.0318146-4.7045288-1.2785034-.6738281-5.3017883-2.8701172-9.7363739-6.8318481-2.7491455-2.4559937-6.3000031-6.75-6.3000031-6.75-2.3458862,1.9163818-5.6231995,4.2234497-9.8590851,6.2182007-1.0953827.5158081-5.4754791,2.5274048-11.6999969,3.7636108-3.1628723.6281738-6.9431,1.3789062-11.9863586.9818726-6.5159912-.5130005-11.1676788-2.6292725-12.3545532-3.190918-6.0428467-2.859436-9.5759125-6.7312622-10.3909149-7.6500244-.4976196-.5609741-3.7354431-4.2700195-5.809082-9.654541-1.1908569-3.0922241-1.6300507-5.7819824-1.6772766-7.2817993-.0190887-.6060791-.0028992-1.9303589,0-2.1682129.020462-1.6746826.074707-2.2160034.1636353-2.7409058.0931396-.5498047.1743622-1.0291748.4090881-1.6363525.4906311-1.269165,1.2523041-2.0630493,1.595459-2.4136353.5912476-.6040649,1.152298-.975708,1.8409119-1.4318237.4821625-.3193359.8122559-.5384521,1.2272644-.7363281,1.5806122-.7537231,3.1302185-.6017456,3.7636414-.5318604.8605957.0949097,1.8547058.2045898,2.7818146.940918.151947.1206665.5106354.4238281.940918,1.0636597.9299316,1.3828125,1.1540833,2.7914429,1.2681732,3.559082Z"/>
  <path d="M871.3228518,568.8580067c3.947052-.8164673,9.1510925-1.4492798,14.7272644-2.1273193,13.3135681-1.6035156,26.6670227-2.4661255,39.8727417-2.4545288.4935303.0655518,2.4083862.3413696,4.4181519-.5454712.5460205-.2409058,1.8682251-.8445435,2.7818604-2.2363281,1.3415527-2.0435791.8100586-4.3423462.5454102-5.5090942-.3098145-1.3659058-.8134155-2.0279541-.9818115-2.2363892-.5914917-.7320557-1.2653198-1.0880127-1.7999878-1.3635864-1.4229126-.7333984-2.7590332-.7997437-3.1090698-.8182373-15.9590149-.8430176-22.7999268-.3272705-22.8000183-.3272705-7.9646606.6258545-18.2227478,1.4838867-25.2545471,2.5090942-1.7977295.359436-3.6712036.6941528-7.4181824,1.3636475-2.9373169.5248413-8.011261.8843994-9.9272766,1.036377-1.9307251.2237549-2.9134216.3452759-3.7636108.8181763-1.8520813,1.0302124-2.651825,2.7901001-2.9454651,3.4363403-.3383789.7446289-.9638367,2.1705933-.7091064,4.036377.0462341.3386841.4169922,2.7670898,2.5636597,4.4182129,1.4882507,1.1447144,3.0447388,1.3117065,4.0363464,1.4181519,1.3217163.1418457,2.1365662-.0401611,5.1818237-.5999756,1.5258789-.2805176,3.062561-.5039062,4.5818176-.8181763Z"/>
  <path d="M890.1416079,614.6091053c4.7930908,1.5584106,7.1135559,2.434021,13.7926025,4.4784546,2.7522583.8424683,8.3463135,2.5270386,10.9500122,3.7158813.241272.1101685,1.367981.6320801,2.9454651,1.1454468.8993225.2926636,1.7284241.5625,2.672699.7091064.8665161.1345215,2.7911377.4334106,4.8409424-.3954468.6242065-.2523804,3.1713867-1.2823486,4.1317749-3.9954834.8449707-2.387085-.0938721-4.5078125-.3544922-5.0726929-1.0205688-2.211853-2.9333496-3.362915-4.3363647-4.1045532-7.3739319-3.8978882-17.490448-6.2113647-20.1000366-6.8591309-3.2045898-.7954712-6.7818298-1.916687-13.9363403-4.1590576-6.3823242-2.0003662-12.7880249-3.9254761-19.1727295-5.9182129-.0000916,0-1.6925049-.5282593-4.5272827-1.2545166-2.2444153-.5750122-3.3827515-.8627319-4.1727295-.8727417-.8714905-.0110474-3.816864-.0484009-5.9454651,2.1272583-1.5539856,1.5883789-1.8523865,3.5178223-1.963623,4.3091431-.1129456.8035889-.3348999,2.3823853.4363708,3.9818115.2379761.4935303,1.0586243,2.0010986,4.309082,3.4363403,7.2923889,1.7775879,14.5994568,3.7185059,21.7227173,6.0068359,4.1860657,1.2825928,6.2767334,1.9312744,8.7073975,2.7215576Z"/>
  <path d="M1026.9205996,354.7125599c3.9023438,3.5523071,9.4293213,8.9251099,15.3817749,16.0363159,7.6160278,9.0986328,14.1532593,18.9223022,25.8545532,42.0545654,12.1778564,24.0744019,18.2668457,36.1116333,23.8909302,52.690918,3.8531494,11.3587036,9.4154053,28.0595093,12.1090698,50.8909302,0,.0001221,2.6699829,22.6306152-3.9272461,72.4909058,0,.0001221-1.4011841,10.5897217-6.3272705,19.4181519-.8765259,1.5709229-1.9090576,2.9453735-1.9091187,2.9454346-.2293701.5115356-.7067871,1.3552246-1.6363525,1.9636841-.4213257.2757568-1.0116577.6621704-1.7454224.565918-.4940796-.0648193-.8212891-.3180542-1.3091431-.6954956-.4327393-.3348389-1.0008545-.7481689-1.3704224-1.4727173-.3197632-.6268921-.3546753-1.2059937-.3681641-1.5545654-.0734863-1.8996582-.1102295-2.8495483.3068237-4.3772583.0527954-.1934814.3488159-4.7380371.9408569-13.8272705.3718872-5.7097778.6828003-18.2097778.2250366-30.6409302-.4047241-10.9900513-1.3086548-32.5587769-7.6773071-59.5840454-3.6967163-15.6870728-7.7874146-27.071106-10.9090576-35.6727295-5.5011597-15.1582642-12.5753174-34.305603-26.6181641-56.0727539-5.6873779-8.8156738-11.0274658-15.7511597-14.911377-20.5090942v-34.6499634Z"/>
  <path d="M1098.0955874,520.5716297c5.4242554,6.0324097,12.3258057,13.9542847,20.0454712,23.4818115,18.34729,22.644165,30.6102295,41.1459351,34.3635864,46.8818359,16.4604492,25.1546631,27.3293457,46.3464966,32.7272949,57.3545227,4.0905762,8.3418884,14.1912842,29.4992065,24.3818359,58.3363647,20.3063965,57.4629822,26.6506958,104.9013367,28.4181519,119.5090942,2.6936035,22.2623291,7.0612793,59.8095093,2.1818237,108.6545563-2.1086426,21.10849-4.8434448,46.9281006-15.7091064,79.4181824-12.8338013,38.3751602-30.1360474,65.4995728-38.8363647,78.1090851-24.9664307,36.1843433-51.1254272,57.2335454-74.1817627,75.4909077-.000061.0000629-56.4017334,44.6621761-124.8000488,68.5090923-6.467041,2.254715-22.022522,7.4143372-42.7090454,10.4454498-23.0405273,3.3760223-36.4578857,1.7688599-42.0545654.9272766-9.9036255-1.4892273-19.7167358-3.0802002-29.8363647-10.2545471-9.729126-6.8974991-14.4674683-15.2166519-15.654541-17.4000015-6.848999-12.5970688-6.2407837-24.6556091-5.8363647-31.0363617,1.651825-26.0618696,17.8638-43.7844791,24.7636414-51.3272715,14.2771301-15.6075048,29.5204163-22.4925718,34.2545471-24.4909086.0000916-.0000381,15.7267456-6.6564293,32.345459-7.4181824,3.2122803-.1472435,8.2090454.2523193,11.0999756.2863617,1.0942828.0973433,1.833577.0504247,2.8977364.5318199.4133911.1687813,1.0564872.6816925,1.2204277.9681801.145752.2547188.1326904.5201912.1227417.7227287-.0049438.100975-.0374146.5957947-.4090576,1.1181831-.3287964.4621239-.7414551.6906357-.9273071.7909088-1.3885498.7492943-2.0828247,1.1239433-2.6727295,1.2954521-5.2646484,1.5307159-10.0180664,4.4663467-15.1159058,6.4840927-6.7716064,2.6802235-11.9638062,5.7891369-17.7817993,9.272728-17.3500671,10.3885822-28.3528442,23.5965024-30.3818359,26.0727264-11.6054382,14.1635455-15.6455383,26.1410893-16.5818176,31.4727257-.7252808,4.130024-.7636108,8.4544487-.7636108,8.4545479-.0305176,3.4417801-.0566711,6.3925438.9818115,9.9272728,1.3372498,4.5517082,3.6986084,7.5485229,4.9090881,9.0545464,4.5114441,5.6129227,9.9137268,8.074173,12.8727112,9.381813,4.6436462,2.0521317,9.1233215,3.0184784,17.1818237,3.7090912,8.3561096.7161179,15.9308777,1.3652725,27.6545715.1636429,6.762146-.6930923,18.4331665-2.3635864,39.3272705-9.3818207,21.2515259-7.1382751,36.8817749-14.7157822,42.4363403-17.4545479,22.5800171-11.1335106,49.3640747-24.3398628,78.8727417-47.3454531,20.2518311-15.7887346,54.246582-42.8195745,81.3818359-89.8363668,22.6658936-39.2727737,30.0866089-74.3677139,34.2545166-94.9090805,7.1102295-35.0426788,6.9838257-62.1519012,6.7636108-83.5636292-.1591187-15.4713745-1.4365845-67.2846375-19.6363525-132.4363708-13.9262085-49.8532715-32.0044556-87.0330811-42.5454102-106.9090881-19.9589233-37.6344299-41.5898438-67.4458923-60-89.67276l.9749756-33.3886108Z"/>
  <path d="M1232.5023867,933.0852558c4.3424072-1.8650513,11.5215454-5.4975739,18.3272705-12.2181702,16.6303711-16.4222565,19.5835571-39.9790802,22.2545776-63.7090912,2.0100098-17.8573914-.0944824-18.1669617,2.6181641-32.5090942,2.4663696-13.039856,5.7860718-29.4757385,18.7636108-43.4181824,6.5404663-7.0267334,13.2493286-10.9656372,15.9273071-12.4363708,10.4613037-5.7452905,19.8961182-7.0449219,23.5636597-7.4181824,5.5026855-.5600586,17.31073-.9979553,29.6726685,4.3636475,22.3039551,9.673645,30.4143066,31.4147339,32.7272949,37.5272827,1.9486084,5.1496887,3.5872192,11.2701416,4.5818481,21.3818054,1.1450806,11.6411743,2.0856323,35.1701965-7.4182129,67.4181824-10.1538086,34.4534149-26.3676758,58.9693604-35.1272583,70.9090881-24.0819702,32.8248138-51.3953247,51.7958527-66.7636719,61.0909119-37.4745483,22.6653137-93.1636353,31.8545456-93.1636353,31.8545456l6.9818726-26.1818161c1.3064575.1125031,3.2335205.2442474,5.5635986.2727203,15.7432251.1923904,28.3132935-4.5930328,41.7817993-11.0181732,18.5333862-8.8413544,32.4897461-15.4992371,49.4727783-29.1272736,6.8061523-5.4615936,29.0658569-24.0532837,48.2181396-55.8545532,1.7171631-2.8512573,21.0961304-35.3348846,28.1454468-75.2727203,1.0635376-6.0252991,2.7266235-17.2058716.8727417-31.2000122-1.2849731-9.6995544-2.7685547-19.9065247-10.4727173-29.4545288-2.4624634-3.0517883-8.3236084-10.1167908-18.7636108-13.3091125-3.6918945-1.1289062-10.546936-2.5656433-18.5454712-.654541-11.2868042,2.6967773-17.8381348,10.3844604-21.1636353,14.4000244-8.4642944,10.2207031-10.5090942,21.1329956-12.4363403,31.4181519-1.1901245,6.3511658-.5200806,6.0851135-2.6182251,30.7636414-.9747314,11.4650879-1.4621582,17.1976624-1.963623,20.0727234-.857605,4.9168701-3.5072021,18.2361298-11.345459,33.8181915-3.9492188,7.8508759-7.6700439,15.2477722-15.2727051,23.1272736-6.6600952,6.9026337-13.4420776,11.2145691-18.1091309,14.1818237-6.3865967,4.0605316-12.1142578,6.863205-16.3635864,8.7272644l.0545044-27.5454559Z"/>
  <path d="M734.1751162,831.5216419c-5.4041138,6.769165-8.1062012,10.1537476-22.0909119,27.3272705-7.6903381,9.4438782-15.0054932,18.4635925-23.5636292,30.7636108-6.5598145,9.4279633-10.0496521,14.4922028-13.9090881,22.4181976-3.5402832,7.2705383-7.7576294,16.1214142-9.1636353,28.309082-.879303,7.6220703-1.6692963,14.470047,1.4727173,22.4181824,4.1684265,10.5445862,12.5072937,16.0688171,16.5272827,18.6545563,8.9500122,5.7568512,17.8897705,7.315033,25.3636475,8.0181732,8.196991.7711639,29.569458,1.9192352,65.7817993-9.3272705,20.0311279-6.2210846,47.2323914-17.0513306,54-19.9636383,1.4072876-.6056061,7.4909363-3.2614288,15.8863831-5.9727173,1.2480774-.4030609,2.02771-.7336578,3.6818237-1.145462.6876221-.1711884,1.2810669-.2947388,2.0454407-.2454529.6864319.0442657,1.8684998.1204681,2.4954529.9818115.4589233.6304932.4020691,1.3816681.3681946,1.7590942-.1353149,1.5082397-1.1730042,2.5578918-1.5136414,2.904541-5.8759155,5.9796753-1.3389893,3.2579803-6.9545593,7.4045563-20.5784912,15.1952515-26.1408081,18.0817719-26.1408997,18.0818176-27.4037781,14.2210083-52.6908264,20.8636017-52.690918,20.8636322-17.4146118,4.5746002-35.052948,9.0448303-57.4227295,6.9272766-11.4703369-1.0858002-19.5131226-3.4614563-25.309082-5.6727295-7.7492676-2.9564972-17.0054321-6.4878998-25.5272675-15.4909058-9.7424927-10.2925873-12.7088013-21.5916901-13.7454529-25.7454529-2.5875549-10.368103-1.6851196-18.6575165-.8727264-25.5272827,1.1141968-9.421875,3.7445526-19.8638,10.4727173-34.2545471,12.0544739-25.7830963,27.1209717-42.5497284,39.2727356-56.0727081.000061-.000061,16.6356812-18.5128479,32.2908936-29.8909302,3.5265198-2.5630493,9.2156677-6.0455627,12.8727417-8.7272644,1.1789856-.8645325,2.122345-1.4081726,4.0090942-2.4954529.9141235-.5267944,1.7604675-.9855957,2.9454346-1.309082.4484863-.1224365,1.2751465-.3154907,2.3318176-.3681946.8239136-.0411072,1.37146-.1046143,2.0045471.0818176.3674316.1081848.6586609.1978847.8591003.4500122.446991.5622253.1210022,1.5275879-.0818176,2.0454407-1.3898926,3.5485535-7.3377075,11.5021057-9,13.9090881-3.1067505,4.3856812-5.6715698,7.6083984-6.6954651,8.8909302Z"/>
  <path d="M404.0660378,672.2625477c-3.0076809,7.0054932-5.6488132,12.832489-7.636364,17.1272583-7.6880598,16.6125793-10.9388933,21.8421326-12.545455,24.3272705-1.3145256,2.0333862-3.7730541,5.7018433-8.9454536,12.1091003-13.4657326,16.6805115-19.8676147,20.3883362-30.8727264,33.1636353-8.6582489,10.0509338-13.9128265,18.4556274-18.7090912,26.1272583-8.4724731,13.5517273-14.0283585,22.596283-17.6727295,36.1636353-3.4208679,12.7352905-3.3431168,22.7010498-3.272728,25.690918.1359024,5.7726746.3413696,14.5001221,4.0909119,24.0545349.0000381.0000916,6.8591003,16.9171753,24.3818207,28.3636475,3.2794266,2.1422424,7.1458511,3.448761,10.0363617,5.7818146.3155441.2546844,1.1439934.9449921,2.3999977,1.2000122,2.0134468.4088135,3.7354584-.5831909,4.0363655-.7636414,2.2681427-1.3601837,2.8780594-4.0363922,3.272728-5.8909149.2745323-1.2900085,1.4800491-7.043396-1.8545456-12.654541-1.7296295-2.9104614-2.8335381-2.6730347-10.2545471-9.3818054-3.2731247-2.9589844-4.9096909-4.4384766-6.2181778-6-.9363632-1.1174316-4.5914993-5.6664734-6.6545486-15.2727356-.6695709-3.1177368-2.8183441-14.4367981.9818192-30.3272705,3.044342-12.72995,8.2493896-21.464325,12.4363632-28.3636475,7.7167854-12.7157898,16.0616302-21.3702393,21.8181801-27.2727356,13.5162125-13.8588867,20.7271996-20.2908325,20.7272739-20.2908936,2.3039188-2.0550232,5.6079941-4.9313965,9.272727-9.6000061,2.6171894-3.334137,3.9621735-5.7272949,7.8545451-12.3272705,7.3023862-12.3820496,6.4701403-10.5746155,8.7272729-14.6181946,3.0235311-5.4165649,6.9764286-13.065979,11.0181814-22.7999878l-16.4181814-18.5454407Z"/>
  <path d="M859.9024111,1195.4898083c-5.3139648,1.4663048-12.3085632,3.1189346-20.6181946,4.3363647-11.3511047,1.6630287-19.9704285,1.7542381-26.6727295,1.7999992-11.2998352.0771523-26.8406677.1832581-37.7999878-3.063221-5.6365967-1.669735-11.9436951-1.6597023-17.0181885-4.6276894-.5667114-.3314514-1.8059692-1.0955963-3.1091003-.7363625-2.7326965.7533188-4.1474915,5.6525497-4.0090942,9.4090919.1020508,2.7698784,1.040741,4.8812866,1.5545654,5.8909073.6494141,1.2760544,3.6963501,6.8366585,15.0545349,10.9636383,3.9832458,1.4473114,8.0161438,2.3649292,17.8363647,3.272728,11.9839783,1.1078186,21.1444397,1.1432648,22.6636353,1.1454544,15.1172485.0217743,26.7388-1.2076492,34.4454651-2.0454559,8.5608826-.9306717,15.7035828-2.0057602,20.8636169-2.8636398l-3.1908875-23.4818153Z"/>
  <g>
    <g>
      <polygon class="cls-4" points="77.2139576 998.9207728 219.0119611 1047.0498135 362.2623199 1000.9583828 218.9528786 954.1921535 77.2139576 998.9207728"/>
      <polygon class="cls-5" points="72.3756378 1002.8443359 72.3756378 1170.2496949 218.9528786 1216.2861686 218.9528786 1044.9572465 72.3756378 1002.8443359"/>
      <polygon class="cls-6" points="219.0119611 1047.0498135 220.8768197 1213.9320307 365.9748494 1169.7265531 365.9748494 1000.9583828 219.0119611 1047.0498135"/>
      <g>
        <path d="M68.3975689,1177.3580181c-2.7080078-.8300781-4.527832-3.1083984-4.527832-5.6689453v-171.0917969c0-2.5527344,1.8120117-4.828125,4.5083008-5.6621094l146.78125-45.5537109c1.2382812-.3847656,2.5332031-.5791016,3.8486328-.5791016,1.3183594,0,2.6162109.1953125,3.8574219.5810547l146.7827148,45.6269531c2.6948242.8359375,4.5053711,3.1103516,4.5053711,5.6611328v171.0175781c0,2.5605469-1.8198242,4.8388672-4.5283203,5.6689453l-150.6137695,46.2021484-150.6137695-46.2021484ZM226.6837017,1206.8101665l132.1264648-40.5263672v-155.2841797l-132.1264648,40.3623047v155.4482422ZM211.3399517,1206.8101665l-.0009766-155.4443359-132.125-40.5273438v155.4453125l132.1259766,40.5263672ZM149.852647,1018.1138774l69.1591797,21.2119141,124.2431641-38.1142578-124.2436523-38.6191406-124.3554688,38.5849609,55.1967773,16.9365234Z"/>
        <path d="M219.0093395,950.8022014c1.1046143,0,2.209259.1636505,3.262146.4909363l144.3096542,44.8594055,2.4740524.7677002c1.8610497.5774536,3.0981483,2.0754547,3.0981483,3.7514954v171.0176048c0,1.6815033-1.2449493,3.1831017-3.1144981,3.7566032l-144.3554001,44.2818451-5.6719513,1.7405548-5.6719055-1.7405548-144.3554382-44.2818451c-1.8695679-.5735016-3.114502-2.0750999-3.114502-3.7566032v-171.0922966c0-1.6766968,1.2379456-3.1750946,3.0999451-3.7521057l2.3503113-.7283936,144.4319458-44.8248596c1.0515442-.3263245,2.1545105-.4894867,3.2574921-.4894867M219.0119335,1041.4177486l131.0214081-40.1931992-131.0214081-40.7255096-131.1394806,40.6894989,61.3937988,18.8370056,69.7456818,21.3922043M213.3400432,1209.5147945l-.000946-159.6270523-39.1589508-12.0122452-96.9662018-29.7423019v159.6291008l136.1260986,41.7524986M224.6838848,1209.5147945l136.1260567-41.7525482v-159.4652023l-136.1260567,41.5846481v159.6331024M219.0093395,946.8022014c-1.5173492,0-3.0121918.2251434-4.4431.6692505l-144.4319458,44.8248444-2.3488159.727951c-3.5383911,1.0964508-5.9158325,4.1397552-5.9158325,7.5727997v171.0922966c0,3.4441032,2.3876343,6.4906006,5.9414062,7.5806999l144.355484,44.2818527,5.671463,1.740448,1.1734924.3600998,1.1734467-.3600998,5.6719513-1.7405472,144.3550034-44.2817535c3.5537987-1.0900993,5.9414482-4.1365967,5.9414482-7.5806999v-171.0176048c0-3.4315948-2.3761482-6.4744873-5.9127502-7.5717926l-2.473999-.7677002-144.3077431-44.8587952c-1.4328003-.4454041-2.9298553-.6712494-4.4495087-.6712494h0ZM101.439439,1001.1671611l117.5714417-36.4796448,117.4654922,36.5119019-117.4645157,36.0343857-68.5726624-21.0324097-48.9997559-15.0342331h0ZM81.2139446,1164.8052551v-151.2612019l91.7931976,28.1555939,36.3319702,11.1450195.0009003,151.2593231-128.1260681-39.2987347h0ZM228.6838848,1052.8422557l128.1260567-39.1407623v151.103714l-128.1260567,39.29879v-151.2617416h0Z"/>
      </g>
    </g>
    <g>
      <polygon class="cls-5" points="498.0945587 1086.3278761 639.8925622 1134.4569168 783.142921 1088.3654861 639.8334797 1041.5992567 498.0945587 1086.3278761"/>
      <polygon class="cls-6" points="493.2562389 1090.2514392 493.2562389 1257.6567982 639.8334797 1303.6932719 639.8334797 1132.3643498 493.2562389 1090.2514392"/>
      <polygon class="cls-5" points="639.8925622 1134.4569168 641.7574208 1301.339134 786.8554506 1257.1336564 786.8554506 1088.3654861 639.8925622 1134.4569168"/>
      <g>
        <path d="M489.2784282,1264.7652446c-2.7084961-.8300781-4.5283203-3.1083984-4.5283203-5.6689453v-171.0917969c0-2.5517578,1.8115234-4.8271484,4.5078125-5.6630859l146.7817383-45.5527344c1.2382812-.3847656,2.5336914-.5791016,3.8500977-.5791016,1.3178711,0,2.6147461.1953125,3.8554688.5800781l146.7836914,45.6279297c2.6943359.8359375,4.5048828,3.1113281,4.5048828,5.6611328v171.0175781c0,2.5605469-1.8193359,4.8378906-4.5273438,5.6689453l-150.6142578,46.2021484-150.6137695-46.2021484ZM647.564561,1294.2164165l132.1264648-40.5253906v-155.2851562l-132.1264648,40.3632812v155.4472656ZM632.220811,1294.2164165l-.0009766-155.4433594-132.1254883-40.5273438v155.4453125l132.1264648,40.5253906ZM639.892686,1126.7330181l124.2426758-38.1142578-124.2431641-38.6191406-124.3554688,38.5849609,124.355957,38.1484375Z"/>
        <path d="M639.8899089,1038.2093059c1.1046143,0,2.209259.1636505,3.262146.4909439l144.3096924,44.8593979,2.4740601.7677002c1.8610535.5774498,3.0981445,2.0754509,3.0981445,3.7515526v171.0175514c0,1.6814957-1.2449341,3.1830978-3.1145325,3.7565918l-144.3554077,44.2818604-5.6719055,1.7405396-5.6719055-1.7405396-144.3554459-44.2818604c-1.869545-.573494-3.114502-2.0750961-3.114502-3.7565918v-171.0923042c0-1.6766968,1.2379532-3.1750984,3.0999069-3.7520981l2.3503494-.7284012,144.4318924-44.8248482c1.0515594-.3263397,2.1545258-.4894943,3.2575073-.4894943M639.8925487,1128.8248493l131.021347-40.1931992-131.021347-40.7254982-131.1394958,40.6894989,61.3937988,18.836998,69.745697,21.3922005M634.2206585,1296.9219066l-.000946-159.6270571-39.1589508-12.0122499-96.9662018-29.7423v159.629097l136.1260986,41.7525101M645.5645,1296.9219066l136.1260681-41.7525558v-159.4652023l-136.1260681,41.584651v159.6331072M639.8899089,1034.2092983c-1.5173492,0-3.012207.2251511-4.4431.6692505l-144.4319,44.824852-2.3488541.7278976c-3.5383987,1.09655-5.915802,4.1398506-5.915802,7.5728493v171.0923042c0,3.4440918,2.3876495,6.4906006,5.9414062,7.5807037l144.3554916,44.2818451,5.671463,1.740448,1.1734924.3601074,1.1734924-.3601074,5.6719055-1.7405548,144.35495-44.2817383c3.5538025-1.0901031,5.9414978-4.1365509,5.9414978-7.5807037v-171.0175514c0-3.4316521-2.3761597-6.4745522-5.9127502-7.5718498l-2.473999-.7677002-144.3078003-44.8588028c-1.4328003-.4453964-2.9298401-.6712494-4.4494934-.6712494h0ZM522.3200542,1088.5742656l117.5714264-36.4796448,117.4654694,36.5119057-117.4644775,36.0343809-68.5726624-21.0324087-48.9997559-15.0342331h0ZM502.0945598,1252.2123577v-151.2612l91.7931976,28.155592,36.3319702,11.1450233.0009003,151.2593212-128.1260681-39.2987366h0ZM649.5645,1140.2493607l128.1260681-39.140759v151.1037102l-128.1260681,39.2987976v-151.2617488h0Z"/>
      </g>
    </g>
    <g>
      <polygon class="cls-5" points="202.2727762 1086.3278761 344.0707797 1134.4569168 487.3211385 1088.3654861 344.0116972 1041.5992567 202.2727762 1086.3278761"/>
      <polygon class="cls-5" points="197.4344564 1090.2514392 197.4344564 1257.6567982 344.0116972 1303.6932719 344.0116972 1132.3643498 197.4344564 1090.2514392"/>
      <polygon class="cls-4" points="344.0707797 1134.4569168 345.9356383 1301.339134 491.0336681 1257.1336564 491.0336681 1088.3654861 344.0707797 1134.4569168"/>
      <g>
        <path d="M193.4566509,1264.7652446c-2.7084961-.8300781-4.5283203-3.1083984-4.5283203-5.6689453v-171.0917969c0-2.5517578,1.8115234-4.8271484,4.5078125-5.6630859l146.7817383-45.5527344c1.2382812-.3847656,2.5336914-.5791016,3.8500977-.5791016,1.3178711,0,2.6147461.1953125,3.8554688.5800781l146.7836914,45.6279297c2.6943359.8359375,4.5048828,3.1103516,4.5048828,5.6611328v171.0175781c0,2.5605469-1.8198242,4.8388672-4.527832,5.6689453l-150.6137695,46.2021484-150.6137695-46.2021484ZM351.7427837,1294.2164165l132.1259766-40.5253906v-155.2851562l-132.1259766,40.3632812v155.4472656ZM336.3990337,1294.2164165l-.0009766-155.4433594-132.1254883-40.5273438v155.4453125l132.1264648,40.5253906ZM344.0709087,1126.7330181l124.2426758-38.1142578-124.2431641-38.6191406-124.3554688,38.5849609,124.355957,38.1484375Z"/>
        <path d="M344.0681621,1038.2093059c1.1046066,0,2.2092514.1636505,3.262146.4909439l144.3096466,44.8593979,2.4740524.7677002c1.8610458.5774498,3.0981522,2.0754509,3.0981522,3.7515526v171.0175514c0,1.6814957-1.244957,3.1830978-3.114502,3.7565918l-144.3554001,44.2818604-5.6719513,1.7405396-5.6718979-1.7405396-144.3554077-44.2818604c-1.8695984-.573494-3.1145477-2.0750961-3.1145477-3.7565918v-171.0923042c0-1.6766968,1.2379608-3.1750984,3.0999603-3.7520981l2.350296-.7284012,144.4319458-44.8248482c1.0515518-.3263397,2.1545181-.4894943,3.2575073-.4894943M344.0707561,1128.8248493l131.0214005-40.1931992-131.0214005-40.7254982-131.1394958,40.6894989,61.3937988,18.836998,69.745697,21.3922005M338.3988582,1296.9219066l-.0009537-159.6270571-39.1589508-12.0122499-96.9661407-29.7423v159.629097l136.1260452,41.7525101M349.7427074,1296.9219066l136.1260986-41.7525558v-159.4652023l-136.1260986,41.584651v159.6331072M344.0681545,1034.2092983c-1.5173492,0-3.0121994.2251511-4.4431.6692505l-144.4319534,44.824852-2.3488007.7279472c-3.5383911,1.0964508-5.9158478,4.1397514-5.9158478,7.5727997v171.0923042c0,3.4441528,2.3877106,6.4906006,5.9414978,7.5807495l144.3554077,44.2817993,5.6714478,1.740448,1.1735001.3601074,1.1734467-.3601074,5.6719513-1.7405548,144.3550034-44.2817383c3.5538025-1.0901031,5.941452-4.1366119,5.941452-7.5807037v-171.0175514c0-3.4316521-2.376152-6.4745522-5.9127502-7.5718498l-2.4740067-.7677002-144.3077469-44.8588028c-1.4328003-.4453964-2.9298477-.6712494-4.449501-.6712494h0ZM226.4982463,1088.5742656l117.5714417-36.4796448,117.4655037,36.5119057-117.4645271,36.0343809-68.5726624-21.0324087-48.9997559-15.0342331h0ZM206.272813,1252.2123577v-151.2612l91.7931442,28.155592,36.3319626,11.1450233.0009003,151.2593212-128.1260071-39.2987366h0ZM353.7427074,1140.2493612l128.1260986-39.1407595v151.1037102l-128.1260986,39.2987976v-151.2617483h0Z"/>
      </g>
    </g>
    <g>
      <polygon class="cls-5" points="349.9527077 870.8740165 491.7507112 919.0030572 635.00107 872.9116264 491.6916287 826.1453971 349.9527077 870.8740165"/>
      <polygon class="cls-6" points="345.1143879 874.7975796 345.1143879 1042.2029385 491.6916287 1088.2394123 491.6916287 916.9104902 345.1143879 874.7975796"/>
      <polygon class="cls-4" points="491.7507112 919.0030572 493.6155698 1085.8852744 638.7135996 1041.6797968 638.7135996 872.9116264 491.7507112 919.0030572"/>
      <g>
        <path d="M341.1363384,1049.3111431c-2.7080078-.8300781-4.527832-3.1083984-4.527832-5.6689453v-171.0917969c0-2.5507812,1.8115234-4.8261719,4.5073242-5.6621094l146.7817383-45.5537109c1.2382812-.3847656,2.5332031-.5791016,3.8491211-.5791016,1.3183594,0,2.6162109.1953125,3.8574219.5810547l146.7827148,45.6269531c2.6948242.8359375,4.5053711,3.1103516,4.5053711,5.6611328v171.0175781c0,2.5605469-1.8198242,4.8388672-4.5283203,5.6689453l-150.6137695,46.2021484-150.6137695-46.2021484ZM499.4224712,1078.7632915l132.1264648-40.5263672v-155.2841797l-132.1264648,40.3623047v155.4482422ZM484.0787212,1078.7632915l-.0009766-155.4433594-132.125-40.5283203v155.4453125l132.1259766,40.5263672ZM422.5914165,890.0670024l69.1591797,21.2119141,124.2431641-38.1142578-124.2436523-38.6181641-124.3554688,38.5849609,55.1967773,16.9355469Z"/>
        <path d="M491.7480175,822.755418c1.1046066,0,2.2093048.1636658,3.2622299.4909668l144.3096542,44.8594055,2.4740448.7677002c1.8610535.5774536,3.0981445,2.0754395,3.0981445,3.7515564v171.01754c0,1.6814957-1.2449493,3.1831512-3.114502,3.7565994l-144.3554459,44.2818489-5.6718979,1.7406006-5.6718979-1.7406006-144.3554535-44.2818489c-1.869545-.5734482-3.114502-2.0751038-3.114502-3.7565994v-171.092308c0-1.6766357,1.2379532-3.1750793,3.0999527-3.7521057l2.3503036-.7283325,144.4319458-44.8249207c1.0515518-.326355,2.1544418-.489502,3.2574234-.489502M491.7506954,913.370988l131.0213547-40.1932068-131.0213547-40.7254944-131.1394997,40.6894836,61.3937993,18.8370209,69.7457004,21.3921967M486.0787975,1081.4680339l-.0009537-159.6270447-39.1589489-12.0122528-96.9661961-29.7423096v159.6291046l136.1260986,41.7525024M497.4226467,1081.4680339l136.1260452-41.7525482v-159.4651947l-136.1260452,41.5846863v159.6330566M491.7479946,818.7554485c-1.5172501,0-3.0121002.2251282-4.4430008.6692505l-144.4319992,44.8248901-2.3487015.7278442c-3.5384445,1.0964966-5.9159012,4.139801-5.9159012,7.5728455v171.092308c0,3.4441986,2.3877029,6.4906998,5.9415054,7.5807495l144.3554001,44.2817993,5.6714478,1.7404976,1.1735001.3600998,1.1735001-.3600998,5.6718979-1.7406006,144.3549957-44.2817497c3.5537567-1.0899963,5.941452-4.1364975,5.941452-7.5806961v-171.01754c0-3.4316711-2.3761444-6.4745483-5.9127502-7.5718689l-2.473999-.7677002-144.3077469-44.8587952c-1.4328003-.4454041-2.9299011-.6712341-4.4496002-.6712341h0ZM374.1781932,873.1204082l117.571434-36.4796448,117.4654617,36.5119019-117.4644852,36.0343781-68.5726585-21.0324097-48.999752-15.0342255h0ZM353.952695,1036.7584926v-151.2612076l91.7931995,28.1555939,36.3319645,11.1450348.0009003,151.2593155-128.1260643-39.2987366h0ZM501.4226467,924.7955486l128.1260452-39.1408081v151.1037064l-128.1260452,39.29879v-151.2616882h0Z"/>
      </g>
    </g>
  </g>
  <circle class="cls-3" cx="541.2517038" cy="471.8557455" r="9.3927492"/>
  <circle class="cls-3" cx="779.1557636" cy="498.9325217" r="9.3927492"/>
</svg>